<svg width="24" height="24" viewBox="0 0 24 24" fill="none" xmlns="http://www.w3.org/2000/svg">
<g clip-path="url(#clip0_3_1599)">
<path d="M16.6829 21.0229H12.2952V12.2969H16.6829V21.0229ZM13.971 19.3459H15.0062V13.9729H13.971V19.3459Z" fill="#5AB4C5"/>
<path d="M22.1701 9.66191C22.0585 9.66186 21.9478 9.63944 21.8449 9.59593L7.61299 3.61193C7.51128 3.56921 7.41909 3.50686 7.34151 3.42842C7.26392 3.34999 7.20246 3.25701 7.16085 3.15483C7.11923 3.05266 7.09812 2.94328 7.09883 2.83296C7.09954 2.72264 7.12231 2.61355 7.16524 2.51192C7.20796 2.4102 7.26991 2.31793 7.34835 2.24034C7.42678 2.16276 7.5201 2.10138 7.62227 2.05977C7.72444 2.01816 7.83373 1.99711 7.94405 1.99782C8.05437 1.99853 8.16322 2.02099 8.26485 2.06392L22.4968 8.04692C22.5985 8.08964 22.6912 8.15199 22.7688 8.23043C22.8463 8.30886 22.9073 8.40184 22.9489 8.50402C22.9905 8.60619 23.0117 8.71556 23.0109 8.82588C23.0102 8.9362 22.988 9.0453 22.945 9.14693C22.8812 9.29975 22.7734 9.43021 22.6355 9.52187C22.4975 9.61353 22.3357 9.66226 22.1701 9.66191Z" fill="#475259"/>
<path d="M1.81781 12.759C1.65058 12.7577 1.48793 12.7051 1.3515 12.6083C1.21508 12.5116 1.11174 12.3754 1.05511 12.218C0.977067 12.0116 0.98284 11.7829 1.07123 11.5807C1.15962 11.3785 1.32326 11.2189 1.52777 11.136L9.45697 8.04304C9.55806 8.00452 9.66575 7.98655 9.77386 7.99021C9.88198 7.99387 9.98811 8.01908 10.0864 8.06434C10.1846 8.1096 10.2731 8.17403 10.3461 8.25382C10.4192 8.33362 10.4757 8.42717 10.5121 8.52903C10.5896 8.73545 10.5831 8.96396 10.4946 9.16587C10.406 9.36778 10.2423 9.52712 10.038 9.61002L2.10883 12.704C2.01594 12.7398 1.91733 12.7584 1.81781 12.759Z" fill="#475259"/>
<path d="M21.8428 21.0229H8.896V3.59592C8.9035 3.37854 8.99494 3.17257 9.15137 3.02145C9.3078 2.87033 9.51687 2.78589 9.73438 2.78589C9.95188 2.78589 10.161 2.87033 10.3174 3.02145C10.4738 3.17257 10.5657 3.37854 10.5732 3.59592V19.3459H20.165V8.33691C20.1725 8.11954 20.264 7.91357 20.4204 7.76245C20.5768 7.61133 20.7859 7.52689 21.0034 7.52689C21.2209 7.52689 21.43 7.61133 21.5864 7.76245C21.7429 7.91357 21.8343 8.11954 21.8418 8.33691L21.8428 21.0229Z" fill="#475259"/>
<path d="M9.9718 21.024H2.92883L2.90784 11.195C2.90784 10.9726 2.99632 10.7594 3.15344 10.6021C3.31057 10.4447 3.52387 10.3562 3.74622 10.356C3.96865 10.3562 4.1817 10.4447 4.33899 10.602C4.49627 10.7593 4.58482 10.9725 4.58508 11.195L4.60315 19.35H9.9679C10.0802 19.3461 10.1921 19.3648 10.297 19.4051C10.4019 19.4454 10.4974 19.5064 10.5782 19.5845C10.6591 19.6625 10.7233 19.7561 10.7672 19.8595C10.8111 19.9629 10.8341 20.0741 10.8341 20.1865C10.8341 20.2988 10.8111 20.41 10.7672 20.5134C10.7233 20.6169 10.6591 20.7104 10.5782 20.7885C10.4974 20.8665 10.4019 20.9275 10.297 20.9678C10.1921 21.0081 10.0802 21.0268 9.9679 21.0229L9.9718 21.024Z" fill="#475259"/>
</g>
<defs>
<clipPath id="clip0_3_1599">
<rect width="24" height="24" fill="white"/>
</clipPath>
</defs>
</svg>
